<svg width="452" height="38" viewBox="0 0 452 38" fill="none" xmlns="http://www.w3.org/2000/svg">
<path d="M13.732 30V19.308H6.244V30H0.34V5.052H6.244V14.7H13.732V5.052H19.636V30H13.732ZM39.4006 24.456C39.4006 25.176 39.4966 25.704 39.6886 26.04C39.9046 26.376 40.2406 26.628 40.6966 26.796L39.5086 30.504C38.3326 30.408 37.3726 30.156 36.6286 29.748C35.8846 29.316 35.3086 28.644 34.9006 27.732C33.6526 29.652 31.7326 30.612 29.1406 30.612C27.2446 30.612 25.7326 30.06 24.6046 28.956C23.4766 27.852 22.9126 26.412 22.9126 24.636C22.9126 22.548 23.6806 20.952 25.2166 19.848C26.7526 18.744 28.9726 18.192 31.8766 18.192H33.8206V17.364C33.8206 16.236 33.5806 15.468 33.1006 15.06C32.6206 14.628 31.7806 14.412 30.5806 14.412C29.9566 14.412 29.2006 14.508 28.3126 14.7C27.4246 14.868 26.5126 15.108 25.5766 15.42L24.2806 11.676C25.4806 11.22 26.7046 10.872 27.9526 10.632C29.2246 10.392 30.4006 10.272 31.4806 10.272C34.2166 10.272 36.2206 10.836 37.4926 11.964C38.7646 13.092 39.4006 14.784 39.4006 17.04V24.456ZM30.7966 26.544C32.0926 26.544 33.1006 25.932 33.8206 24.708V21.324H32.4166C31.1206 21.324 30.1486 21.552 29.5006 22.008C28.8766 22.464 28.5646 23.172 28.5646 24.132C28.5646 24.9 28.7566 25.5 29.1406 25.932C29.5486 26.34 30.1006 26.544 30.7966 26.544ZM54.2992 10.344C54.9952 10.344 55.6312 10.428 56.2072 10.596L55.3072 16.104C54.5872 15.936 54.0112 15.852 53.5792 15.852C52.4512 15.852 51.5872 16.248 50.9872 17.04C50.4112 17.808 49.9552 18.972 49.6192 20.532V30H43.9312V10.884H48.8992L49.3672 14.592C49.7992 13.272 50.4472 12.24 51.3112 11.496C52.1992 10.728 53.1952 10.344 54.2992 10.344ZM68.7484 10.344C69.4444 10.344 70.0804 10.428 70.6564 10.596L69.7564 16.104C69.0364 15.936 68.4604 15.852 68.0284 15.852C66.9004 15.852 66.0364 16.248 65.4364 17.04C64.8604 17.808 64.4044 18.972 64.0684 20.532V30H58.3804V10.884H63.3484L63.8164 14.592C64.2484 13.272 64.8964 12.24 65.7604 11.496C66.6484 10.728 67.6444 10.344 68.7484 10.344ZM78.5177 10.884V30H72.8297V10.884H78.5177ZM75.6377 0.803998C76.6217 0.803998 77.4257 1.116 78.0497 1.74C78.6977 2.34 79.0217 3.108 79.0217 4.044C79.0217 4.98 78.6977 5.76 78.0497 6.384C77.4257 6.984 76.6217 7.284 75.6377 7.284C74.6537 7.284 73.8497 6.984 73.2257 6.384C72.6017 5.76 72.2897 4.98 72.2897 4.044C72.2897 3.108 72.6017 2.34 73.2257 1.74C73.8497 1.116 74.6537 0.803998 75.6377 0.803998ZM89.7218 10.272C91.0898 10.272 92.3738 10.476 93.5738 10.884C94.7738 11.292 95.8298 11.868 96.7418 12.612L94.6538 15.816C93.0938 14.832 91.5218 14.34 89.9378 14.34C89.1938 14.34 88.6178 14.472 88.2098 14.736C87.8258 14.976 87.6338 15.324 87.6338 15.78C87.6338 16.14 87.7178 16.44 87.8858 16.68C88.0778 16.896 88.4498 17.124 89.0018 17.364C89.5538 17.604 90.4058 17.892 91.5578 18.228C93.5498 18.804 95.0258 19.56 95.9858 20.496C96.9698 21.408 97.4618 22.68 97.4618 24.312C97.4618 25.608 97.0898 26.736 96.3458 27.696C95.6018 28.632 94.5818 29.352 93.2858 29.856C91.9898 30.36 90.5498 30.612 88.9658 30.612C87.3578 30.612 85.8578 30.36 84.4658 29.856C83.0978 29.352 81.9338 28.656 80.9738 27.768L83.7458 24.672C85.3538 25.92 87.0458 26.544 88.8218 26.544C89.6858 26.544 90.3578 26.388 90.8378 26.076C91.3418 25.764 91.5938 25.32 91.5938 24.744C91.5938 24.288 91.4978 23.928 91.3058 23.664C91.1138 23.4 90.7418 23.16 90.1898 22.944C89.6378 22.704 88.7618 22.416 87.5618 22.08C85.6658 21.528 84.2498 20.76 83.3138 19.776C82.3778 18.792 81.9098 17.568 81.9098 16.104C81.9098 15 82.2218 14.016 82.8458 13.152C83.4938 12.264 84.4058 11.568 85.5818 11.064C86.7818 10.536 88.1618 10.272 89.7218 10.272ZM108.672 10.272C111.6 10.272 113.892 11.172 115.548 12.972C117.204 14.748 118.032 17.244 118.032 20.46C118.032 22.5 117.648 24.288 116.88 25.824C116.136 27.336 115.056 28.512 113.64 29.352C112.248 30.192 110.592 30.612 108.672 30.612C105.768 30.612 103.476 29.724 101.796 27.948C100.14 26.148 99.3122 23.64 99.3122 20.424C99.3122 18.384 99.6842 16.608 100.428 15.096C101.196 13.56 102.276 12.372 103.668 11.532C105.084 10.692 106.752 10.272 108.672 10.272ZM108.672 14.448C107.52 14.448 106.656 14.94 106.08 15.924C105.504 16.884 105.216 18.384 105.216 20.424C105.216 22.512 105.492 24.036 106.044 24.996C106.62 25.956 107.496 26.436 108.672 26.436C109.824 26.436 110.688 25.956 111.264 24.996C111.84 24.012 112.128 22.5 112.128 20.46C112.128 18.372 111.84 16.848 111.264 15.888C110.712 14.928 109.848 14.448 108.672 14.448ZM132.612 10.272C134.268 10.272 135.564 10.776 136.5 11.784C137.436 12.792 137.904 14.208 137.904 16.032V30H132.216V17.004C132.216 16.044 132.06 15.384 131.748 15.024C131.46 14.64 131.016 14.448 130.416 14.448C129.264 14.448 128.16 15.276 127.104 16.932V30H121.416V10.884H126.384L126.78 13.152C127.596 12.192 128.472 11.472 129.408 10.992C130.368 10.512 131.436 10.272 132.612 10.272ZM164.128 16.788C165.784 17.1 167.128 17.712 168.16 18.624C169.216 19.536 169.744 20.904 169.744 22.728C169.744 25.392 168.784 27.276 166.864 28.38C164.968 29.46 162.304 30 158.872 30H150.844V5.052H157.9C161.404 5.052 164.08 5.556 165.928 6.564C167.776 7.548 168.7 9.168 168.7 11.424C168.7 12.888 168.256 14.076 167.368 14.988C166.504 15.876 165.424 16.476 164.128 16.788ZM156.748 9.228V15.024H158.944C161.44 15.024 162.688 14.016 162.688 12C162.688 10.992 162.352 10.284 161.68 9.876C161.008 9.444 159.94 9.228 158.476 9.228H156.748ZM158.908 25.716C160.468 25.716 161.644 25.488 162.436 25.032C163.252 24.552 163.66 23.676 163.66 22.404C163.66 20.1 162.22 18.948 159.34 18.948H156.748V25.716H158.908ZM181.235 10.272C184.163 10.272 186.455 11.172 188.111 12.972C189.767 14.748 190.595 17.244 190.595 20.46C190.595 22.5 190.211 24.288 189.443 25.824C188.699 27.336 187.619 28.512 186.203 29.352C184.811 30.192 183.155 30.612 181.235 30.612C178.331 30.612 176.039 29.724 174.359 27.948C172.703 26.148 171.875 23.64 171.875 20.424C171.875 18.384 172.247 16.608 172.991 15.096C173.759 13.56 174.839 12.372 176.231 11.532C177.647 10.692 179.315 10.272 181.235 10.272ZM181.235 14.448C180.083 14.448 179.219 14.94 178.643 15.924C178.067 16.884 177.779 18.384 177.779 20.424C177.779 22.512 178.055 24.036 178.607 24.996C179.183 25.956 180.059 26.436 181.235 26.436C182.387 26.436 183.251 25.956 183.827 24.996C184.403 24.012 184.691 22.5 184.691 20.46C184.691 18.372 184.403 16.848 183.827 15.888C183.275 14.928 182.411 14.448 181.235 14.448ZM204.346 10.344C205.042 10.344 205.678 10.428 206.254 10.596L205.354 16.104C204.634 15.936 204.058 15.852 203.626 15.852C202.498 15.852 201.634 16.248 201.034 17.04C200.458 17.808 200.002 18.972 199.666 20.532V30H193.978V10.884H198.946L199.414 14.592C199.846 13.272 200.494 12.24 201.358 11.496C202.246 10.728 203.242 10.344 204.346 10.344ZM225.609 12C224.361 12.504 222.525 12.756 220.101 12.756C221.349 13.284 222.261 13.932 222.837 14.7C223.413 15.468 223.701 16.464 223.701 17.688C223.701 18.912 223.377 20.016 222.729 21C222.081 21.96 221.145 22.716 219.921 23.268C218.721 23.82 217.305 24.096 215.673 24.096C214.905 24.096 214.173 24.024 213.477 23.88C213.285 23.976 213.129 24.132 213.009 24.348C212.913 24.54 212.865 24.744 212.865 24.96C212.865 25.32 212.997 25.608 213.261 25.824C213.549 26.016 214.113 26.112 214.953 26.112H217.833C219.297 26.112 220.581 26.352 221.685 26.832C222.789 27.312 223.641 27.972 224.241 28.812C224.841 29.652 225.141 30.6 225.141 31.656C225.141 33.648 224.277 35.196 222.549 36.3C220.845 37.428 218.373 37.992 215.133 37.992C212.805 37.992 210.969 37.74 209.625 37.236C208.281 36.756 207.333 36.072 206.781 35.184C206.253 34.296 205.989 33.18 205.989 31.836H211.101C211.101 32.412 211.209 32.868 211.425 33.204C211.665 33.54 212.085 33.792 212.685 33.96C213.285 34.128 214.149 34.212 215.277 34.212C216.837 34.212 217.917 34.02 218.517 33.636C219.117 33.276 219.417 32.748 219.417 32.052C219.417 31.476 219.189 31.02 218.733 30.684C218.277 30.348 217.593 30.18 216.681 30.18H213.909C211.941 30.18 210.465 29.832 209.481 29.136C208.521 28.416 208.041 27.504 208.041 26.4C208.041 25.704 208.245 25.032 208.653 24.384C209.061 23.712 209.613 23.16 210.309 22.728C209.109 22.08 208.233 21.324 207.681 20.46C207.153 19.572 206.889 18.504 206.889 17.256C206.889 15.12 207.657 13.428 209.193 12.18C210.729 10.908 212.757 10.272 215.277 10.272C217.197 10.32 218.817 10.128 220.137 9.696C221.481 9.264 222.861 8.628 224.277 7.788L225.609 12ZM215.421 14.016C214.533 14.016 213.825 14.304 213.297 14.88C212.793 15.432 212.541 16.2 212.541 17.184C212.541 18.216 212.793 19.02 213.297 19.596C213.825 20.148 214.533 20.424 215.421 20.424C216.357 20.424 217.065 20.148 217.545 19.596C218.049 19.044 218.301 18.216 218.301 17.112C218.301 15.048 217.341 14.016 215.421 14.016ZM243.693 20.064C243.693 20.856 243.657 21.54 243.585 22.116H231.741C231.933 23.724 232.389 24.852 233.109 25.5C233.829 26.148 234.825 26.472 236.097 26.472C236.865 26.472 237.609 26.34 238.329 26.076C239.049 25.788 239.829 25.356 240.669 24.78L243.009 27.948C240.777 29.724 238.293 30.612 235.557 30.612C232.461 30.612 230.085 29.7 228.429 27.876C226.773 26.052 225.945 23.604 225.945 20.532C225.945 18.588 226.293 16.848 226.989 15.312C227.685 13.752 228.705 12.528 230.049 11.64C231.393 10.728 233.001 10.272 234.873 10.272C237.633 10.272 239.793 11.136 241.353 12.864C242.913 14.592 243.693 16.992 243.693 20.064ZM238.113 18.444C238.065 15.516 237.033 14.052 235.017 14.052C234.033 14.052 233.265 14.412 232.713 15.132C232.185 15.852 231.861 17.04 231.741 18.696H238.113V18.444ZM253.62 10.272C254.988 10.272 256.272 10.476 257.472 10.884C258.672 11.292 259.728 11.868 260.64 12.612L258.552 15.816C256.992 14.832 255.42 14.34 253.836 14.34C253.092 14.34 252.516 14.472 252.108 14.736C251.724 14.976 251.532 15.324 251.532 15.78C251.532 16.14 251.616 16.44 251.784 16.68C251.976 16.896 252.348 17.124 252.9 17.364C253.452 17.604 254.304 17.892 255.456 18.228C257.448 18.804 258.924 19.56 259.884 20.496C260.868 21.408 261.36 22.68 261.36 24.312C261.36 25.608 260.988 26.736 260.244 27.696C259.5 28.632 258.48 29.352 257.184 29.856C255.888 30.36 254.448 30.612 252.864 30.612C251.256 30.612 249.756 30.36 248.364 29.856C246.996 29.352 245.832 28.656 244.872 27.768L247.644 24.672C249.252 25.92 250.944 26.544 252.72 26.544C253.584 26.544 254.256 26.388 254.736 26.076C255.24 25.764 255.492 25.32 255.492 24.744C255.492 24.288 255.396 23.928 255.204 23.664C255.012 23.4 254.64 23.16 254.088 22.944C253.536 22.704 252.66 22.416 251.46 22.08C249.564 21.528 248.148 20.76 247.212 19.776C246.276 18.792 245.808 17.568 245.808 16.104C245.808 15 246.12 14.016 246.744 13.152C247.392 12.264 248.304 11.568 249.48 11.064C250.68 10.536 252.06 10.272 253.62 10.272ZM289.97 3.288V30H284.93L284.642 27.768C283.298 29.664 281.486 30.612 279.206 30.612C276.83 30.612 275.018 29.7 273.77 27.876C272.546 26.052 271.934 23.556 271.934 20.388C271.934 18.444 272.258 16.704 272.906 15.168C273.554 13.632 274.466 12.432 275.642 11.568C276.842 10.704 278.21 10.272 279.746 10.272C281.57 10.272 283.082 10.872 284.282 12.072V2.676L289.97 3.288ZM280.97 26.436C282.29 26.436 283.394 25.716 284.282 24.276V16.032C283.826 15.48 283.358 15.072 282.878 14.808C282.422 14.544 281.894 14.412 281.294 14.412C280.238 14.412 279.398 14.904 278.774 15.888C278.15 16.872 277.838 18.384 277.838 20.424C277.838 22.656 278.102 24.216 278.63 25.104C279.182 25.992 279.962 26.436 280.97 26.436ZM302.7 10.272C305.628 10.272 307.92 11.172 309.576 12.972C311.232 14.748 312.06 17.244 312.06 20.46C312.06 22.5 311.676 24.288 310.908 25.824C310.164 27.336 309.084 28.512 307.668 29.352C306.276 30.192 304.62 30.612 302.7 30.612C299.796 30.612 297.504 29.724 295.824 27.948C294.168 26.148 293.34 23.64 293.34 20.424C293.34 18.384 293.712 16.608 294.456 15.096C295.224 13.56 296.304 12.372 297.696 11.532C299.112 10.692 300.78 10.272 302.7 10.272ZM302.7 14.448C301.548 14.448 300.684 14.94 300.108 15.924C299.532 16.884 299.244 18.384 299.244 20.424C299.244 22.512 299.52 24.036 300.072 24.996C300.648 25.956 301.524 26.436 302.7 26.436C303.852 26.436 304.716 25.956 305.292 24.996C305.868 24.012 306.156 22.5 306.156 20.46C306.156 18.372 305.868 16.848 305.292 15.888C304.74 14.928 303.876 14.448 302.7 14.448ZM322.175 10.272C323.543 10.272 324.827 10.476 326.027 10.884C327.227 11.292 328.283 11.868 329.195 12.612L327.107 15.816C325.547 14.832 323.975 14.34 322.391 14.34C321.647 14.34 321.071 14.472 320.663 14.736C320.279 14.976 320.087 15.324 320.087 15.78C320.087 16.14 320.171 16.44 320.339 16.68C320.531 16.896 320.903 17.124 321.455 17.364C322.007 17.604 322.859 17.892 324.011 18.228C326.003 18.804 327.479 19.56 328.439 20.496C329.423 21.408 329.915 22.68 329.915 24.312C329.915 25.608 329.543 26.736 328.799 27.696C328.055 28.632 327.035 29.352 325.739 29.856C324.443 30.36 323.003 30.612 321.419 30.612C319.811 30.612 318.311 30.36 316.919 29.856C315.551 29.352 314.387 28.656 313.427 27.768L316.199 24.672C317.807 25.92 319.499 26.544 321.275 26.544C322.139 26.544 322.811 26.388 323.291 26.076C323.795 25.764 324.047 25.32 324.047 24.744C324.047 24.288 323.951 23.928 323.759 23.664C323.567 23.4 323.195 23.16 322.643 22.944C322.091 22.704 321.215 22.416 320.015 22.08C318.119 21.528 316.703 20.76 315.767 19.776C314.831 18.792 314.363 17.568 314.363 16.104C314.363 15 314.675 14.016 315.299 13.152C315.947 12.264 316.859 11.568 318.035 11.064C319.235 10.536 320.615 10.272 322.175 10.272ZM349.524 4.44C351.396 4.44 353.016 4.704 354.384 5.232C355.776 5.76 357.036 6.564 358.164 7.644L355.428 10.848C353.724 9.456 351.9 8.76 349.956 8.76C348.924 8.76 348.108 8.976 347.508 9.408C346.908 9.816 346.608 10.416 346.608 11.208C346.608 11.76 346.74 12.216 347.004 12.576C347.268 12.912 347.736 13.236 348.408 13.548C349.08 13.86 350.088 14.232 351.432 14.664C353.976 15.48 355.848 16.488 357.048 17.688C358.248 18.864 358.848 20.544 358.848 22.728C358.848 24.288 358.452 25.668 357.66 26.868C356.868 28.044 355.728 28.968 354.24 29.64C352.752 30.288 350.988 30.612 348.948 30.612C346.908 30.612 345.096 30.288 343.512 29.64C341.952 28.992 340.608 28.128 339.48 27.048L342.468 23.772C343.428 24.588 344.412 25.2 345.42 25.608C346.452 26.016 347.568 26.22 348.768 26.22C349.992 26.22 350.952 25.956 351.648 25.428C352.368 24.876 352.728 24.12 352.728 23.16C352.728 22.536 352.596 22.02 352.332 21.612C352.068 21.18 351.612 20.796 350.964 20.46C350.316 20.124 349.38 19.764 348.156 19.38C345.396 18.54 343.428 17.508 342.252 16.284C341.1 15.06 340.524 13.512 340.524 11.64C340.524 10.2 340.908 8.94 341.676 7.86C342.444 6.756 343.512 5.916 344.88 5.34C346.248 4.74 347.796 4.44 349.524 4.44ZM377.182 24.456C377.182 25.176 377.278 25.704 377.47 26.04C377.686 26.376 378.022 26.628 378.478 26.796L377.29 30.504C376.114 30.408 375.154 30.156 374.41 29.748C373.666 29.316 373.09 28.644 372.682 27.732C371.434 29.652 369.514 30.612 366.922 30.612C365.026 30.612 363.514 30.06 362.386 28.956C361.258 27.852 360.694 26.412 360.694 24.636C360.694 22.548 361.462 20.952 362.998 19.848C364.534 18.744 366.754 18.192 369.658 18.192H371.602V17.364C371.602 16.236 371.362 15.468 370.882 15.06C370.402 14.628 369.562 14.412 368.362 14.412C367.738 14.412 366.982 14.508 366.094 14.7C365.206 14.868 364.294 15.108 363.358 15.42L362.062 11.676C363.262 11.22 364.486 10.872 365.734 10.632C367.006 10.392 368.182 10.272 369.262 10.272C371.998 10.272 374.002 10.836 375.274 11.964C376.546 13.092 377.182 14.784 377.182 17.04V24.456ZM368.578 26.544C369.874 26.544 370.882 25.932 371.602 24.708V21.324H370.198C368.902 21.324 367.93 21.552 367.282 22.008C366.658 22.464 366.346 23.172 366.346 24.132C366.346 24.9 366.538 25.5 366.922 25.932C367.33 26.34 367.882 26.544 368.578 26.544ZM392.908 10.272C394.564 10.272 395.86 10.776 396.796 11.784C397.732 12.792 398.2 14.208 398.2 16.032V30H392.512V17.004C392.512 16.044 392.356 15.384 392.044 15.024C391.756 14.64 391.312 14.448 390.712 14.448C389.56 14.448 388.456 15.276 387.4 16.932V30H381.712V10.884H386.68L387.076 13.152C387.892 12.192 388.768 11.472 389.704 10.992C390.664 10.512 391.732 10.272 392.908 10.272ZM414.478 29.1C413.782 29.58 412.966 29.952 412.03 30.216C411.118 30.48 410.206 30.612 409.294 30.612C405.118 30.588 403.03 28.284 403.03 23.7V14.844H400.33V10.884H403.03V6.744L408.718 6.096V10.884H413.11L412.498 14.844H408.718V23.628C408.718 24.516 408.862 25.152 409.15 25.536C409.438 25.92 409.894 26.112 410.518 26.112C411.166 26.112 411.85 25.908 412.57 25.5L414.478 29.1ZM424.024 10.272C426.952 10.272 429.244 11.172 430.9 12.972C432.556 14.748 433.384 17.244 433.384 20.46C433.384 22.5 433 24.288 432.232 25.824C431.488 27.336 430.408 28.512 428.992 29.352C427.6 30.192 425.944 30.612 424.024 30.612C421.12 30.612 418.828 29.724 417.148 27.948C415.492 26.148 414.664 23.64 414.664 20.424C414.664 18.384 415.036 16.608 415.78 15.096C416.548 13.56 417.628 12.372 419.02 11.532C420.436 10.692 422.104 10.272 424.024 10.272ZM424.024 14.448C422.872 14.448 422.008 14.94 421.432 15.924C420.856 16.884 420.568 18.384 420.568 20.424C420.568 22.512 420.844 24.036 421.396 24.996C421.972 25.956 422.848 26.436 424.024 26.436C425.176 26.436 426.04 25.956 426.616 24.996C427.192 24.012 427.48 22.5 427.48 20.46C427.48 18.372 427.192 16.848 426.616 15.888C426.064 14.928 425.2 14.448 424.024 14.448ZM443.499 10.272C444.867 10.272 446.151 10.476 447.351 10.884C448.551 11.292 449.607 11.868 450.519 12.612L448.431 15.816C446.871 14.832 445.299 14.34 443.715 14.34C442.971 14.34 442.395 14.472 441.987 14.736C441.603 14.976 441.411 15.324 441.411 15.78C441.411 16.14 441.495 16.44 441.663 16.68C441.855 16.896 442.227 17.124 442.779 17.364C443.331 17.604 444.183 17.892 445.335 18.228C447.327 18.804 448.803 19.56 449.763 20.496C450.747 21.408 451.239 22.68 451.239 24.312C451.239 25.608 450.867 26.736 450.123 27.696C449.379 28.632 448.359 29.352 447.063 29.856C445.767 30.36 444.327 30.612 442.743 30.612C441.135 30.612 439.635 30.36 438.243 29.856C436.875 29.352 435.711 28.656 434.751 27.768L437.523 24.672C439.131 25.92 440.823 26.544 442.599 26.544C443.463 26.544 444.135 26.388 444.615 26.076C445.119 25.764 445.371 25.32 445.371 24.744C445.371 24.288 445.275 23.928 445.083 23.664C444.891 23.4 444.519 23.16 443.967 22.944C443.415 22.704 442.539 22.416 441.339 22.08C439.443 21.528 438.027 20.76 437.091 19.776C436.155 18.792 435.687 17.568 435.687 16.104C435.687 15 435.999 14.016 436.623 13.152C437.271 12.264 438.183 11.568 439.359 11.064C440.559 10.536 441.939 10.272 443.499 10.272Z" fill="#141414"/>
</svg>
